<?xml version="1.0" standalone="no"?>
<!DOCTYPE svg PUBLIC "-//W3C//DTD SVG 20010904//EN"
 "http://www.w3.org/TR/2001/REC-SVG-20010904/DTD/svg10.dtd">
<svg version="1.0" xmlns="http://www.w3.org/2000/svg"
 width="500.000000pt" height="500.000000pt" viewBox="0 0 500.000000 500.000000"
 preserveAspectRatio="xMidYMid meet">

<g transform="translate(0.000000,500.000000) scale(0.100000,-0.100000)"
fill="#000000" stroke="none">
<path d="M2275 4714 c-16 -2 -66 -9 -110 -15 -240 -31 -545 -133 -770 -257
-374 -206 -706 -548 -899 -925 -197 -384 -274 -787 -236 -1242 19 -221 36
-311 92 -482 151 -465 521 -923 949 -1178 94 -56 349 -175 445 -208 116 -40
310 -89 434 -108 114 -18 515 -18 635 0 105 15 302 61 395 91 77 24 286 113
350 148 112 61 159 89 220 130 310 211 569 503 741 837 109 210 168 394 200
625 18 129 19 599 1 700 -39 219 -83 374 -155 540 -149 347 -393 664 -677 880
-304 231 -628 374 -1015 445 -86 16 -523 30 -600 19z m595 -104 c245 -49 391
-96 576 -186 444 -217 774 -543 984 -969 154 -314 222 -596 223 -930 1 -127
-2 -154 -17 -177 -14 -21 -15 -31 -6 -47 8 -16 6 -44 -10 -120 -11 -54 -20
-107 -20 -118 0 -10 -9 -24 -20 -31 -15 -9 -20 -23 -20 -59 0 -29 -14 -84 -36
-145 -32 -86 -39 -98 -60 -98 -35 0 -52 -32 -46 -89 4 -43 0 -55 -37 -117 -63
-105 -78 -121 -92 -106 -16 15 -51 16 -67 0 -7 -7 -12 -39 -12 -74 0 -57 -3
-66 -36 -106 -20 -23 -51 -58 -70 -77 l-34 -33 -19 23 c-16 20 -23 22 -47 14
-25 -9 -29 -16 -32 -55 -4 -77 -10 -86 -85 -144 -78 -60 -87 -64 -87 -42 0 14
-21 26 -45 26 -26 0 -45 -31 -45 -73 0 -31 -5 -45 -19 -52 -10 -6 -43 -25 -72
-42 -60 -36 -79 -41 -79 -18 0 18 -36 34 -61 28 -18 -5 -39 -51 -39 -87 0 -17
-18 -28 -85 -58 -73 -32 -85 -34 -85 -19 0 39 -54 56 -84 25 -9 -8 -16 -28
-16 -44 0 -26 -5 -30 -52 -44 -29 -8 -72 -18 -95 -22 -38 -6 -43 -4 -43 13 0
40 -45 57 -74 27 -9 -8 -16 -28 -16 -44 0 -30 5 -28 -136 -46 -52 -6 -52 -6
-59 24 -12 56 -79 55 -93 -1 l-8 -32 -95 0 -94 0 -3 28 c-7 57 -92 59 -92 1 0
-26 0 -26 -62 -20 -135 14 -138 15 -138 45 0 15 -9 36 -20 46 -17 15 -24 16
-45 7 -14 -6 -25 -20 -25 -30 0 -10 -2 -21 -6 -24 -6 -6 -149 29 -176 43 -11
6 -18 21 -18 37 0 34 -16 52 -47 52 -15 0 -27 -9 -34 -24 -11 -24 -12 -24 -63
-9 -28 8 -67 23 -87 34 -31 15 -37 24 -42 60 -3 23 -11 46 -19 50 -26 17 -58
10 -69 -15 l-11 -23 -41 21 c-23 12 -61 34 -84 49 -40 25 -43 30 -43 72 0 34
-5 47 -20 55 -26 14 -54 5 -66 -20 -8 -17 -15 -14 -84 39 -65 50 -75 62 -78
92 -5 71 -13 99 -33 109 -27 15 -56 4 -63 -23 -5 -20 -12 -15 -76 52 -69 72
-70 75 -70 127 0 29 -4 64 -9 77 -13 33 -47 44 -70 23 -16 -15 -19 -15 -35 3
-19 20 -38 53 -82 135 -20 39 -25 58 -20 88 4 21 2 47 -4 57 -10 20 -67 34
-73 17 -2 -5 -6 -2 -10 8 -4 10 -3 15 3 11 6 -3 10 1 10 9 0 8 -5 18 -12 22
-7 4 -8 3 -4 -4 8 -13 4 -15 -18 -6 -9 3 -12 12 -8 22 5 15 4 15 -13 2 -16
-14 -17 -13 -11 7 5 15 2 24 -10 31 -13 7 -15 16 -9 38 4 16 9 59 12 96 4 58
2 68 -15 77 -34 18 -73 219 -52 270 11 27 10 33 -9 57 -18 23 -21 40 -21 123
0 121 16 313 35 411 108 584 468 1107 981 1428 257 160 602 279 909 312 144
15 496 4 615 -20z"/>
<path d="M2300 4494 c-14 -2 -56 -9 -95 -15 -441 -68 -801 -243 -1109 -539
-464 -446 -681 -1051 -595 -1664 21 -150 56 -270 138 -476 117 -291 372 -596
660 -791 400 -270 901 -408 1353 -371 710 58 1359 477 1657 1070 55 110 133
349 162 497 21 105 24 148 23 350 0 212 -2 240 -27 360 -114 536 -436 999
-889 1278 -222 137 -468 230 -748 283 -81 15 -470 28 -530 18z m555 -194 c109
-21 273 -66 288 -80 4 -4 -26 -40 -68 -81 -124 -120 -246 -282 -336 -446 l-34
-63 -202 -2 c-112 -1 -210 -2 -220 -2 -10 -1 -26 17 -41 44 -76 141 -181 279
-320 421 -62 65 -110 119 -105 122 19 11 214 67 288 82 133 27 230 34 440 30
150 -3 227 -9 310 -25z m600 -131 c280 -153 550 -414 710 -684 144 -244 212
-449 251 -755 48 -385 -62 -843 -282 -1170 -97 -145 -195 -251 -370 -401 -143
-122 -407 -267 -624 -341 -234 -79 -376 -102 -645 -101 -207 0 -229 2 -370 31
-215 45 -422 116 -570 198 -22 12 -56 30 -75 40 -122 66 -254 168 -375 289
-72 71 -137 139 -145 150 -8 11 -25 33 -37 49 -13 15 -20 32 -17 37 3 5 0 8
-7 7 -6 -2 -14 3 -17 11 -3 9 0 11 8 6 9 -5 11 -4 6 4 -4 6 -11 9 -16 6 -5 -3
-12 0 -16 6 -4 6 0 15 8 20 9 5 21 21 27 37 11 26 9 35 -23 89 -88 150 -166
365 -206 566 -31 153 -28 424 5 594 34 170 94 345 161 473 47 88 125 212 145
230 3 3 30 37 61 75 61 76 190 204 278 277 84 69 235 169 238 158 2 -6 -1 -72
-7 -148 -6 -76 -11 -275 -11 -443 0 -324 5 -371 52 -446 17 -28 19 -44 13
-115 -14 -195 -9 -182 -73 -224 -101 -66 -141 -104 -168 -161 l-27 -55 18
-101 c9 -56 26 -126 37 -156 39 -102 140 -173 217 -151 l32 9 -20 -32 c-53
-85 -100 -175 -106 -205 -20 -96 1 -169 67 -235 l50 -50 -19 -76 c-11 -42 -24
-84 -28 -93 -5 -13 -3 -18 9 -18 9 0 16 -4 16 -8 0 -4 -32 -57 -70 -116 -80
-122 -80 -110 12 -160 l47 -25 21 57 c12 31 50 111 84 178 83 161 83 161 44
133 l-31 -23 6 49 c4 26 7 56 7 66 0 17 9 19 83 19 45 1 109 8 142 16 33 9 69
18 81 21 15 3 23 -2 32 -21 l11 -25 73 26 c40 14 77 29 83 34 5 5 15 9 22 9 7
0 31 11 52 26 21 14 48 26 59 27 12 0 19 3 17 5 -4 5 90 72 101 72 4 0 13 8
20 18 11 14 13 15 14 1 0 -8 -6 -21 -12 -28 -10 -11 -10 -13 0 -7 7 5 12 1 12
-9 0 -11 -5 -15 -15 -11 -8 3 -15 0 -15 -6 0 -7 -5 -6 -15 2 -9 7 -18 10 -22
6 -3 -3 -1 -6 5 -6 17 0 15 -18 -2 -22 -8 -2 0 -10 18 -19 27 -14 33 -15 33
-2 0 7 -6 12 -13 9 -8 -3 -16 -1 -19 3 -9 16 24 20 39 6 8 -8 18 -15 23 -15 4
0 24 -16 43 -35 25 -26 36 -32 42 -22 12 22 38 103 57 179 l18 70 34 -41 33
-42 12 40 c6 22 15 61 19 87 l7 46 32 -31 c17 -17 35 -31 39 -31 4 0 7 39 7
86 l0 85 29 -20 c16 -12 32 -21 36 -21 5 0 5 32 1 70 -3 39 -3 70 1 70 5 0 23
-9 41 -20 18 -11 37 -20 41 -20 13 0 -5 62 -40 139 -35 78 -36 83 -4 75 14 -3
25 -3 25 0 0 3 -23 31 -51 62 -28 31 -49 58 -47 60 3 2 19 -1 38 -6 19 -5 35
-9 36 -7 2 1 -9 16 -24 33 -42 47 -116 100 -183 130 -52 23 -58 29 -42 38 10
5 47 12 83 16 l65 6 -40 21 c-22 11 -60 26 -84 33 l-45 12 51 29 c28 16 74 35
102 42 28 6 51 14 51 18 0 3 -26 14 -57 23 -112 34 -145 56 -190 125 -59 90
-108 137 -167 162 -37 15 -55 30 -66 52 -21 44 -74 49 -118 13 -28 -24 -80
-117 -97 -176 -4 -14 -21 -51 -36 -82 -30 -59 -31 -60 -111 -73 -53 -8 -248
-143 -329 -227 -27 -29 -28 -29 -88 -17 -34 6 -79 9 -101 6 -48 -6 -51 2 -7
28 76 45 265 186 299 223 49 55 78 124 85 204 7 79 -8 125 -43 134 -31 8 -42
-1 -50 -41 -5 -28 -11 -35 -29 -35 -28 0 -48 -23 -73 -80 -24 -57 -37 -157
-21 -162 16 -5 -6 -70 -31 -93 -20 -18 -20 -17 -19 61 1 198 53 321 211 496
49 54 141 124 195 148 66 30 188 60 237 60 l41 -1 -38 -20 c-59 -31 -112 -92
-128 -146 -16 -56 -16 -146 1 -188 15 -39 25 -22 35 60 9 85 64 195 118 238
59 48 94 57 220 57 109 0 110 0 92 -20 -17 -18 -16 -19 11 -25 64 -13 123 -54
226 -157 106 -104 107 -106 85 -120 -13 -9 -38 -13 -62 -11 -32 3 -37 2 -22
-7 9 -6 22 -8 27 -5 6 3 10 1 10 -4 0 -6 10 -11 23 -11 13 0 32 -7 43 -16 10
-8 13 -13 6 -9 -7 4 -20 1 -29 -7 -9 -7 -14 -8 -10 -2 9 16 -20 26 -40 15 -14
-7 -13 -10 5 -15 11 -4 33 -17 48 -29 15 -12 34 -22 42 -23 23 -4 27 -14 4
-14 -24 0 -49 -35 -32 -45 5 -3 15 -3 22 1 7 5 8 3 3 -5 -4 -8 3 -23 18 -39
14 -15 30 -38 35 -52 9 -24 7 -27 -31 -38 -107 -34 -132 -55 -79 -68 15 -4 37
-14 49 -21 12 -8 28 -11 35 -7 7 4 10 4 6 -1 -12 -13 71 -72 97 -70 14 2 22
-2 21 -10 0 -8 4 -14 9 -13 6 0 9 4 7 10 -1 5 2 7 8 3 16 -10 -7 -35 -31 -35
-32 0 -21 -16 26 -40 63 -33 72 -45 49 -72 -14 -15 -16 -22 -6 -25 6 -3 12
-11 12 -19 0 -9 -4 -13 -9 -10 -5 4 -7 -8 -4 -25 4 -27 2 -31 -12 -25 -13 5
-16 2 -11 -11 4 -12 0 -10 -10 4 -9 13 -21 23 -26 23 -7 0 -6 -5 1 -13 6 -8 7
-17 3 -21 -4 -4 -2 -7 3 -5 21 5 43 -13 40 -32 -5 -23 1 -24 20 -5 12 12 12
15 0 20 -8 3 -15 11 -15 17 0 8 6 6 18 -4 19 -18 26 -53 11 -62 -5 -3 -6 2 -3
12 5 15 4 15 -4 3 -13 -17 -5 -33 13 -26 8 3 17 -7 24 -25 8 -23 7 -28 -2 -23
-7 4 -4 -1 5 -12 22 -25 13 -92 -9 -70 -4 4 -1 11 6 15 9 6 10 11 2 15 -6 4
-11 2 -11 -3 0 -6 -9 -2 -20 9 -22 22 -29 24 -47 12 -8 -5 -7 -12 4 -27 16
-20 16 -20 9 0 -6 20 -6 20 9 1 15 -20 15 -20 15 0 1 16 3 15 15 -7 8 -15 21
-29 30 -33 8 -3 15 -14 15 -24 0 -10 5 -23 11 -29 8 -8 6 -18 -6 -36 -9 -14
-15 -34 -13 -44 1 -10 -1 -24 -6 -32 -7 -10 -3 -12 15 -6 l24 6 -24 -19 c-14
-11 -23 -30 -23 -45 0 -15 -4 -27 -9 -27 -5 0 -9 4 -9 9 0 6 -8 10 -17 10 -44
2 -63 6 -63 12 0 4 -10 9 -22 12 l-23 6 24 -20 c13 -10 34 -19 47 -19 13 0 24
-4 24 -10 0 -5 -8 -6 -17 -3 -16 6 -16 5 -4 -10 19 -24 7 -32 -50 -32 -47 0
-63 8 -36 18 7 3 4 6 -6 6 -12 1 -17 -5 -15 -16 2 -12 13 -17 37 -17 19 -1 36
-7 38 -13 3 -7 0 -13 -7 -13 -6 0 -8 5 -4 11 4 7 -2 9 -17 7 -29 -4 -34 -21
-14 -42 9 -9 13 -21 9 -27 -4 -7 -3 -9 4 -5 5 3 12 3 15 -1 2 -5 2 -1 0 7 -8
29 -8 33 3 37 13 4 13 -44 0 -65 -10 -17 0 -42 17 -42 7 0 13 -8 13 -19 0 -20
-3 -19 -103 13 -17 6 -23 3 -23 -8 0 -9 7 -16 16 -16 8 0 12 -4 9 -10 -9 -14
9 -12 24 3 7 6 12 8 11 2 -5 -21 1 -27 14 -16 12 10 13 8 9 -8 -7 -25 -33 -28
-34 -3 -1 11 -4 8 -8 -8 -5 -14 -4 -32 0 -41 6 -11 4 -21 -5 -28 -15 -12 -46
-5 -46 11 0 6 -7 8 -15 4 -8 -3 -14 0 -12 6 1 6 -4 13 -10 15 -10 3 -9 -4 1
-29 12 -27 19 -32 40 -30 18 2 26 -1 26 -12 0 -18 -16 -21 -25 -6 -13 22 -23
-2 -12 -30 13 -34 4 -49 -21 -33 -15 9 -18 7 -16 -16 3 -62 4 -72 12 -68 4 3
8 -17 9 -44 2 -53 -4 -58 -42 -33 -25 16 -25 16 -25 -16 0 -26 3 -31 18 -26
10 4 7 -2 -8 -13 -22 -17 -25 -27 -25 -84 0 -36 -3 -60 -7 -54 -5 8 -8 6 -8
-5 0 -10 -7 -16 -20 -15 -10 1 -17 3 -15 6 3 2 0 10 -6 18 -10 11 -14 10 -26
-7 -8 -11 -15 -34 -15 -50 -1 -16 -5 -27 -9 -24 -5 3 -7 -9 -5 -25 2 -17 -1
-29 -7 -28 -6 1 -12 -7 -14 -18 -3 -16 -2 -17 6 -5 6 8 11 10 11 5 0 -6 -9
-18 -20 -28 -21 -17 -28 -57 -10 -57 6 0 10 -7 10 -15 0 -19 -17 -19 -36 -1
-9 10 -10 16 -3 18 7 2 7 8 -2 15 -11 9 -14 6 -15 -13 -1 -13 3 -24 9 -24 8 0
8 -3 0 -11 -18 -18 -35 -1 -23 21 8 15 6 23 -11 39 l-21 20 21 -6 c12 -3 21
-1 21 6 0 6 -5 11 -11 11 -5 0 -8 4 -5 9 3 4 -1 16 -8 26 -12 17 -15 14 -29
-36 -18 -65 -21 -129 -5 -129 6 0 5 -6 -3 -17 -12 -15 -12 -16 4 -10 10 4 34
7 53 7 21 0 33 5 31 12 -1 8 13 11 43 10 34 -1 40 1 25 8 -19 8 -19 9 3 9 12
1 22 -3 22 -9 0 -5 5 -10 10 -10 6 0 10 9 10 20 0 22 16 27 22 8 6 -18 28 0
44 36 l14 31 -5 -38 c-4 -38 -3 -39 23 -32 36 9 52 23 52 46 0 11 4 19 9 19
10 0 9 -19 -2 -37 -10 -17 -12 -17 64 8 76 24 258 110 357 168 147 86 357 263
453 383 l30 37 -26 28 c-30 32 -93 121 -124 176 l-20 36 20 6 c18 6 18 9 7 25
-7 10 -35 47 -61 83 -46 64 -49 72 -82 229 -19 90 -38 180 -43 201 -8 29 -7
37 4 37 8 0 14 2 14 5 0 2 -23 73 -52 157 -28 84 -55 171 -59 193 -4 22 -23
78 -43 125 -19 46 -32 87 -28 90 21 15 57 79 73 132 32 101 22 316 -27 588 -8
47 -20 112 -26 145 -5 33 -23 114 -38 180 -16 66 -31 131 -33 145 -3 14 -10
40 -15 58 -6 17 -9 32 -7 32 2 0 29 -14 60 -31z m-292 -101 c-109 -111 -196
-236 -268 -383 -25 -49 -56 -98 -70 -108 -14 -10 -25 -15 -25 -11 0 4 16 46
36 93 45 105 145 262 228 355 58 65 168 156 190 156 5 0 -36 -46 -91 -102z
m-1512 -463 c-5 -374 -8 -427 -20 -406 -27 49 -23 807 4 852 19 30 22 -45 16
-446z m1630 76 c11 -94 2 -320 -12 -285 -11 32 -63 64 -102 64 -52 0 -67 9
-67 39 0 54 60 201 128 311 l16 25 13 -34 c8 -19 19 -73 24 -120z m-1492 109
c58 -58 115 -213 92 -249 -9 -14 -47 -12 -83 4 -16 6 -18 0 -18 -71 -1 -48 -6
-89 -15 -104 l-13 -25 -6 25 c-19 92 -16 450 5 450 4 0 21 -14 38 -30z m1317
-635 c-11 -8 -25 -15 -30 -15 -6 0 -5 4 3 9 11 7 10 10 -5 14 -11 3 -3 5 16 6
33 0 34 -1 16 -14z m82 -95 c44 -8 67 -19 41 -21 -8 0 -27 -2 -43 -4 -15 -2
-25 -1 -22 3 4 3 -8 14 -26 25 -18 10 -24 15 -13 12 11 -4 39 -10 63 -15z
m-1338 -109 c0 -26 -17 -36 -36 -21 -11 10 -12 16 -3 26 17 20 39 17 39 -5z
m607 -17 c3 -8 -2 -23 -11 -32 -15 -15 -17 -15 -32 0 -21 21 -11 48 16 48 11
0 23 -7 27 -16z m-17 -84 c23 0 35 7 50 33 l20 32 0 -27 c0 -38 -39 -62 -84
-54 -35 7 -46 21 -46 59 1 18 4 16 15 -10 11 -27 20 -33 45 -33z m-630 29 c0
-6 -4 -7 -10 -4 -5 3 -10 11 -10 16 0 6 5 7 10 4 6 -3 10 -11 10 -16z m-180
-334 c29 -15 56 -43 48 -51 -3 -2 -17 0 -32 6 -49 18 -157 12 -195 -11 -18
-11 -35 -18 -37 -16 -8 8 42 72 66 85 29 15 109 8 150 -13z m1628 -80 c-3 -3
-9 2 -12 12 -6 14 -5 15 5 6 7 -7 10 -15 7 -18z m142 -5 c-6 -11 -13 -20 -16
-20 -2 0 0 9 6 20 6 11 13 20 16 20 2 0 0 -9 -6 -20z m22 -24 c2 -12 -3 -20
-14 -21 -21 -4 -22 -1 -6 25 14 22 15 22 20 -4z m-53 -70 c9 -10 7 -17 -6 -27
-15 -13 -16 -12 -11 8 3 12 1 24 -6 27 -8 3 -8 5 0 5 6 1 17 -5 23 -13z m14
-41 c-3 -9 -8 -14 -10 -11 -3 3 -2 9 2 15 9 16 15 13 8 -4z m-1891 -96 c2 -21
0 -39 -4 -39 -11 0 -34 49 -43 90 l-7 35 25 -23 c16 -16 26 -37 29 -63z m1904
45 c2 -12 -1 -13 -12 -3 -7 6 -11 16 -8 21 7 11 17 3 20 -18z m47 -35 c5 -4 7
-15 3 -25 -6 -16 -9 -14 -21 10 -18 35 -21 72 -3 41 6 -11 16 -23 21 -26z
m-962 4 c-10 -4 -10 -7 -1 -13 8 -5 -2 -14 -29 -26 -32 -15 -41 -24 -41 -46 0
-20 -7 -28 -29 -36 -16 -6 -32 -8 -35 -5 -3 4 -6 -6 -6 -20 0 -28 -24 -47 -59
-47 -14 0 -21 -8 -23 -27 -2 -22 -10 -29 -38 -34 -41 -9 -44 -7 -35 20 3 12
18 24 32 27 15 4 29 17 35 35 6 19 19 30 38 34 19 4 42 24 67 57 34 45 98 89
128 87 6 0 4 -3 -4 -6z m932 -23 c3 -14 1 -20 -6 -17 -7 2 -14 14 -15 26 -4
28 13 20 21 -9z m17 -126 c0 -19 -5 -34 -11 -34 -6 0 -8 7 -5 16 4 11 2 15 -8
11 -14 -6 -15 -1 -7 57 3 24 31 -21 31 -50z m-65 6 c-3 -5 -12 -10 -18 -10 -7
0 -6 4 3 10 19 12 23 12 15 0z m-1669 -69 c-3 -5 1 -15 10 -22 33 -27 47 -71
41 -127 -6 -60 2 -56 37 19 9 20 27 41 39 47 73 35 179 71 210 69 16 0 16 -2
-1 -31 -10 -17 -24 -50 -32 -74 -9 -30 -16 -39 -22 -30 -6 9 -8 7 -7 -7 2 -11
-1 -31 -5 -44 -6 -19 -10 -21 -18 -10 -7 11 -8 9 -6 -6 1 -11 -2 -27 -7 -35
-5 -8 -21 -37 -35 -64 -37 -73 -66 -90 -158 -94 -75 -4 -78 -3 -114 30 -64 60
-72 138 -23 245 24 52 81 143 91 143 3 0 3 -4 0 -9z m1636 -23 c-7 -7 -12 -8
-12 -2 0 14 12 26 19 19 2 -3 -1 -11 -7 -17z m11 -35 c-4 -11 -3 -14 5 -9 7 4
12 3 12 -3 0 -17 -18 -21 -24 -5 -9 23 -7 34 4 34 5 0 6 -7 3 -17z m-193 -73
c0 -5 -5 -10 -11 -10 -5 0 -7 5 -4 10 3 6 8 10 11 10 2 0 4 -4 4 -10z m50 -95
c0 -8 -7 -15 -15 -15 -8 0 -15 5 -15 11 0 5 5 7 10 4 6 -3 10 -1 10 4 0 6 2
11 5 11 3 0 5 -7 5 -15z m111 -50 c5 4 9 -1 9 -9 0 -9 5 -16 10 -16 6 0 10 -8
10 -17 0 -15 -2 -16 -10 -3 -7 11 -10 7 -10 -19 0 -44 -13 -32 -17 16 -1 19
-8 42 -14 49 -6 7 -7 19 -2 26 6 9 9 7 11 -10 2 -12 8 -20 13 -17z m-2427
-148 c4 4 4 -1 0 -10 -3 -10 -7 -17 -8 -15 -1 2 -8 12 -16 23 -14 18 -13 19 1
8 9 -7 19 -10 23 -6z m2150 -102 c-4 -8 -8 -15 -10 -15 -2 0 -4 7 -4 15 0 8 4
15 10 15 5 0 7 -7 4 -15z m186 -122 c0 -9 3 -13 7 -10 3 4 12 2 20 -4 7 -6 13
-8 13 -4 0 4 -8 14 -17 22 -17 14 -17 14 0 9 9 -3 17 -1 17 4 0 6 4 10 10 10
5 0 6 -7 3 -17 -4 -10 -2 -14 5 -9 10 6 28 -31 19 -40 -3 -3 -24 1 -48 8 -34
10 -44 18 -45 35 -1 13 3 20 7 17 5 -3 9 -12 9 -21z m-185 -43 c3 -6 -1 -7 -9
-4 -18 7 -21 14 -7 14 6 0 13 -4 16 -10z m162 -72 c-3 -8 -6 -5 -6 6 -1 11 2
17 5 13 3 -3 4 -12 1 -19z m-25 -56 c-7 -2 -12 -11 -12 -19 0 -9 -3 -13 -7
-10 -3 4 0 19 8 33 8 16 15 21 18 13 2 -7 -1 -15 -7 -17z m14 -38 c-4 -9 -9
-15 -11 -12 -3 3 -3 13 1 22 4 9 9 15 11 12 3 -3 3 -13 -1 -22z m-35 -45 c-5
-13 -10 -19 -10 -12 -1 15 10 45 15 40 3 -2 0 -15 -5 -28z m7 -42 c14 4 14 3
2 -5 -16 -12 -30 -7 -29 11 0 9 2 9 5 0 3 -7 13 -9 22 -6z m-285 -67 c3 -11 1
-18 -4 -14 -5 3 -9 12 -9 20 0 20 7 17 13 -6z m212 -29 c-3 -6 -14 -10 -23
-10 -15 1 -15 2 1 6 9 2 17 9 17 15 0 6 3 9 6 5 3 -3 3 -10 -1 -16z m-378 -43
c-3 -8 -6 -5 -6 6 -1 11 2 17 5 13 3 -3 4 -12 1 -19z m26 -38 c3 -13 0 -20
-10 -20 -8 0 -11 5 -8 10 3 6 1 10 -5 10 -6 0 -8 5 -5 10 10 16 22 12 28 -10z
m37 -30 c0 -5 -12 -10 -27 -9 -25 0 -26 1 -8 9 27 12 35 12 35 0z"/>
<path d="M1330 3625 l0 -147 55 71 c30 39 55 75 55 80 0 5 -25 40 -55 76 l-55
68 0 -148z"/>
<path d="M1437 3334 c-14 -15 -6 -34 14 -34 14 0 19 5 17 17 -3 18 -20 27 -31
17z"/>
<path d="M3716 3101 c-26 -29 -21 -91 12 -131 26 -31 34 -34 93 -38 l65 -4 28
41 c16 23 31 41 35 41 3 0 19 -19 35 -41 l29 -41 83 4 c97 4 119 18 127 83 l4
40 -224 -3 c-234 -3 -253 0 -253 39 0 26 -15 31 -34 10z"/>
<path d="M1248 3083 l-13 -28 -228 -3 -227 -2 0 -30 c0 -75 26 -90 154 -90
l72 0 30 40 c16 22 32 40 35 40 4 0 19 -18 35 -41 28 -40 29 -41 78 -36 41 4
55 11 83 41 32 35 47 96 23 96 -5 0 -10 9 -10 20 0 29 -17 25 -32 -7z"/>
<path d="M773 2790 c-18 -7 -23 -17 -23 -43 0 -49 14 -57 101 -57 85 0 122
-10 157 -43 15 -14 26 -17 32 -11 7 7 -9 35 -50 87 l-60 77 -68 -1 c-37 0 -77
-4 -89 -9z"/>
<path d="M1184 2768 c-17 -18 -47 -54 -68 -80 -33 -42 -35 -47 -18 -52 13 -4
49 14 115 57 l97 63 -39 22 c-21 12 -43 22 -48 22 -5 0 -23 -15 -39 -32z"/>
<path d="M3742 2777 l-43 -23 96 -57 c53 -31 108 -60 123 -64 27 -6 26 -6 -13
43 -90 112 -100 124 -110 123 -5 0 -29 -10 -53 -22z"/>
<path d="M4059 2759 c-19 -23 -46 -56 -61 -74 -34 -39 -34 -41 -6 -48 15 -4
32 3 55 23 30 27 41 30 103 30 75 0 100 14 100 55 0 36 -36 55 -101 55 -54 0
-58 -2 -90 -41z"/>
<path d="M1265 2384 c-19 -58 -47 -74 -133 -74 -35 0 -61 -4 -58 -9 9 -13 -3
-39 -21 -45 -20 -8 -43 11 -43 35 0 16 -12 18 -146 21 -80 2 -148 0 -150 -4
-2 -3 0 -17 5 -31 12 -31 57 -37 289 -37 l172 0 0 -48 c0 -26 -5 -53 -12 -60
-8 -8 -65 -12 -189 -12 -188 0 -189 0 -189 -50 0 -45 20 -50 219 -50 179 0
190 1 221 23 65 44 72 62 73 193 2 98 -1 123 -15 143 -16 23 -18 23 -23 5z"/>
<path d="M3742 2377 c-19 -21 -22 -34 -22 -119 0 -103 11 -150 44 -187 39 -43
74 -51 238 -51 165 0 201 9 206 48 7 47 -9 52 -173 52 -174 0 -185 5 -185 78
l0 40 194 4 c174 3 196 5 215 22 27 24 30 72 4 60 -10 -5 -67 -11 -128 -14
-78 -3 -110 -9 -111 -17 -2 -27 -4 -31 -20 -37 -21 -8 -55 21 -47 40 4 11 -8
14 -59 14 -72 0 -103 16 -122 61 l-12 29 -22 -23z"/>
<path d="M3210 2125 c14 -16 29 -32 33 -33 4 -2 3 -10 -3 -17 -7 -8 -9 -23 -5
-34 7 -24 35 -36 35 -15 0 9 -5 12 -11 8 -8 -5 -10 3 -7 24 4 26 -2 37 -31 64
-35 32 -35 32 -11 3z"/>
<path d="M2480 1609 c0 -5 5 -7 10 -4 6 3 10 8 10 11 0 2 -4 4 -10 4 -5 0 -10
-5 -10 -11z"/>
<path d="M1328 1412 c-2 -75 -1 -141 3 -145 5 -7 119 124 119 137 0 2 -27 36
-59 75 l-59 71 -4 -138z"/>
<path d="M1666 1068 c-14 -20 -14 -23 0 -31 19 -11 19 -10 28 26 8 33 -7 36
-28 5z"/>
<path d="M3400 2120 c0 -5 5 -10 11 -10 5 0 7 5 4 10 -3 6 -8 10 -11 10 -2 0
-4 -4 -4 -10z"/>
</g>
</svg>
